# xmcd
# Track frame offsets:
# 150
# 11390
# 24800
# 36400
# 46900
# 60000
# 71825
# 86070
# 102452
# 114770
# 125160
# 137917
#
# Disc length: 1995 seconds
# Revision: 2
# Processed by: cddbd v1.5.2PL0 Copyright (c) Steve Scherf et al.
# Submitted via: VisiTrax 2.11.3.279 - For more info visit www.synapsa.com
#
DISCID=9907c90c
DTITLE=Slim Dusty - Dinki-Di Aussies
DYEAR=1974
DGENRE=Australian Country
TTITLE0=The Desert Lair
TTITLE1=Return Of The Stockman
TTITLE2=The New Australian Bushman
TTITLE3=A Rose Of Red
TTITLE4=The Man From Never Never
TTITLE5=Little Old One Horse Pub
TTITLE6=Road Trains
TTITLE7=Brigalow Bill
TTITLE8=Dinki-Di Aussie
TTITLE9=The Saddle Is His Home
TTITLE10=This Chap Who Knows A Lot
TTITLE11=So Long, Old Mates
EXTD=1974 EMI Music Australia 1996 EMI Music Australia
EXTT0=
EXTT1=
EXTT2=
EXTT3=
EXTT4=
EXTT5=
EXTT6=
EXTT7=
EXTT8=
EXTT9=
EXTT10=
EXTT11=
PLAYORDER=
